#!OML:ASF H:\Dans Jumps\Project 1\Capture day 1\Session 1\subject.ASF
:FULLY-SPECIFIED
:DEGREES
426
root 0.524387 17.5856 0.994026 7.27487 0.796715 -0.173544
lowerback 0.971936 -0.360195 -0.877589
upperback 1.91296 -0.500816 1.83244
thorax 1.43945 -0.277531 2.36994
lowerneck -11.5739 -0.700819 -1.46571
upperneck 29.7286 -0.901448 0.790355
head 11.603 -0.470201 0.428155
rclavicle 4.96962e-015 -3.18055e-015
rhumerus -20.7809 -23.4384 -78.7943
rradius 21.5451
rwrist 45.4863
rhand -24.0658 -28.8209
rfingers 7.12502
rthumb 2.41385 -58.787
lclavicle 4.96962e-015 -3.18055e-015
lhumerus -25.4216 11.3705 86.1688
lradius 8.02655
lwrist -4.85244
lhand -26.9742 -7.11475
lfingers 7.12502
lthumb -0.395215 22.8646
rfemur -22.5807 -1.52124 18.6547
rtibia 30.3019
rfoot -12.99 -1.15767
rtoes 8.99044
lfemur -20.989 6.95429 -18.7926
ltibia 24.7728
lfoot -9.91842 2.84181
ltoes -3.71973
427
root 0.524749 17.5992 1.02396 7.36332 0.826598 -0.0692336
lowerback 0.970158 -0.390932 -0.979829
upperback 1.95699 -0.542027 1.80996
thorax 1.48847 -0.300201 2.40404
lowerneck -11.6202 -0.684877 -1.47683
upperneck 29.6932 -0.867453 0.765464
head 11.5981 -0.459158 0.425142
rclavicle -2.38542e-015 -7.55382e-015
rhumerus -21.0873 -24.0854 -78.3757
rradius 21.17
rwrist 46.1737
rhand -24.0309 -28.8314
rfingers 7.12502
rthumb 2.44751 -58.7971
lclavicle -2.38542e-015 -7.55382e-015
lhumerus -25.4177 11.4107 86.021
lradius 7.92507
lwrist -5.53473
lhand -27.0094 -7.07114
lfingers 7.12502
lthumb -0.429201 22.9082
rfemur -22.3614 -1.43774 18.5254
rtibia 29.9366
rfoot -12.8973 -1.2205
rtoes 9.12141
lfemur -20.6875 6.82509 -18.908
ltibia 24.2087
lfoot -9.58494 2.77027
ltoes -2.99846
428
root 0.525023 17.6097 1.05303 7.43089 0.85932 0.0200041
lowerback 0.984975 -0.418326 -1.07604
upperback 2.01557 -0.578992 1.7972
thorax 1.54308 -0.320988 2.44483
lowerneck -11.6757 -0.675082 -1.49634
upperneck 29.6432 -0.8431 0.750934
head 11.5896 -0.452027 0.426103
rclavicle 2.08724e-015 1.11319e-014
rhumerus -21.3769 -24.7806 -77.9319
rradius 20.7787
rwrist 46.9275
rhand -23.9945 -28.8338
rfingers 7.12502
rthumb 2.4827 -58.7991
lclavicle 2.08724e-015 1.11319e-014
lhumerus -25.3757 11.449 85.8919
lradius 7.85847
lwrist -5.95079
lhand -26.9213 -6.93975
lfingers 7.12502
lthumb -0.344053 23.0397
rfemur -22.1647 -1.37888 18.4157
rtibia 29.6494
rfoot -12.8419 -1.26634
rtoes 9.20249
lfemur -20.4188 6.69749 -19.0045
ltibia 23.7411
lfoot -9.28452 2.71338
ltoes -2.32065
429
root 0.525544 17.6173 1.08082 7.48891 0.892095 0.0957908
lowerback 1.01499 -0.444464 -1.16358
upperback 2.07479 -0.614378 1.79114
thorax 1.58986 -0.340925 2.48775
lowerneck -11.7423 -0.668212 -1.52835
upperneck 29.5963 -0.824658 0.752699
head 11.5848 -0.446902 0.434465
rclavicle -4.47266e-015 -3.97569e-015
rhumerus -21.6735 -25.4912 -77.47
rradius 20.3896
rwrist 47.7238
rhand -23.972 -28.8313
rfingers 7.12502
rthumb 2.50439 -58.7964
lclavicle -4.47266e-015 -3.97569e-015
lhumerus -25.3111 11.4914 85.7733
lradius 7.81597
lwrist -6.11477
lhand -26.748 -6.75561
lfingers 7.12502
lthumb -0.176686 23.2241
rfemur -21.9959 -1.34157 18.3228
rtibia 29.4244
rfoot -12.8155 -1.29167
rtoes 9.26283
lfemur -20.1926 6.56926 -19.0839
ltibia 23.3624
lfoot -9.02757 2.68322
ltoes -1.77535
430
root 0.525981 17.6229 1.10805 7.5362 0.92725 0.132011
lowerback 1.05575 -0.466738 -1.21772
upperback 2.13576 -0.644842 1.79924
thorax 1.63203 -0.358042 2.52656
lowerneck -11.796 -0.665199 -1.55731
upperneck 29.5296 -0.812415 0.754071
head 11.5698 -0.444231 0.441323
rclavicle 3.77691e-015 -1.19271e-015
rhumerus -21.9787 -26.2127 -76.9898
rradius 20.0062
rwrist 48.5583
rhand -23.9325 -28.8477
rfingers 7.12502
rthumb 2.54254 -58.8123
lclavicle 3.77691e-015 -1.19271e-015
lhumerus -25.2248 11.5324 85.6706
lradius 7.77751
lwrist -6.11269
lhand -26.5633 -6.61002
lfingers 7.12502
lthumb 0.00166167 23.3697
rfemur -21.8415 -1.31045 18.2762
rtibia 29.2416
rfoot -12.8085 -1.30966
rtoes 9.31922
lfemur -20.0033 6.45343 -19.1154
ltibia 23.0671
lfoot -8.82925 2.67114
ltoes -1.40336
431
root 0.526741 17.6272 1.13549 7.57473 0.960612 0.154398
lowerback 1.09288 -0.485593 -1.25789
upperback 2.2003 -0.670838 1.81189
thorax 1.67962 -0.372876 2.56217
lowerneck -11.8455 -0.662881 -1.57047
upperneck 29.4482 -0.800259 0.73972
head 11.548 -0.441732 0.439602
rclavicle 3.77691e-015 -1.11319e-014
rhumerus -22.2935 -26.9474 -76.4948
rradius 19.6297
rwrist 49.4354
rhand -23.8904 -28.8687
rfingers 7.12502
rthumb 2.58317 -58.8328
lclavicle 3.77691e-015 -1.11319e-014
lhumerus -25.1198 11.5726 85.5822
lradius 7.73959
lwrist -6.03172
lhand -26.4034 -6.5019
lfingers 7.12502
lthumb 0.156095 23.4778
rfemur -21.6915 -1.29376 18.245
rtibia 29.0854
rfoot -12.8179 -1.30578
rtoes 9.41218
lfemur -19.8401 6.35211 -19.13
ltibia 22.8427
lfoot -8.69349 2.67561
ltoes -1.20901
432
root 0.52773 17.6308 1.16282 7.61323 0.992077 0.145783
lowerback 1.12566 -0.499548 -1.26618
upperback 2.26181 -0.690373 1.83277
thorax 1.72594 -0.384022 2.58833
lowerneck -11.8893 -0.662941 -1.57036
upperneck 29.3568 -0.789966 0.709308
head 11.521 -0.440537 0.42941
rclavicle 1.23246e-014 -7.95139e-015
rhumerus -22.622 -27.6902 -75.9866
rradius 19.2602
rwrist 50.3428
rhand -23.8477 -28.897
rfingers 7.12502
rthumb 2.62444 -58.8606
lclavicle 1.23246e-014 -7.95139e-015
lhumerus -25.0049 11.6084 85.5063
lradius 7.68955
lwrist -5.98383
lhand -26.329 -6.49831
lfingers 7.12502
lthumb 0.227951 23.4813
rfemur -21.5478 -1.27767 18.2482
rtibia 28.9371
rfoot -12.8328 -1.29197
rtoes 9.51136
lfemur -19.7083 6.27104 -19.1096
ltibia 22.6775
lfoot -8.61175 2.6852
ltoes -1.14878
433
root 0.529037 17.6341 1.19057 7.65547 1.01534 0.110549
lowerback 1.14883 -0.506011 -1.245
upperback 2.3136 -0.69988 1.85882
thorax 1.7668 -0.389564 2.60323
lowerneck -11.9144 -0.660836 -1.53958
upperneck 29.2539 -0.776235 0.651766
head 11.4855 -0.437734 0.404414
rclavicle -2.98177e-015 -5.56597e-015
rhumerus -22.9765 -28.475 -75.4501
rradius 18.8836
rwrist 51.3077
rhand -23.8133 -28.9216
rfingers 7.12502
rthumb 2.65763 -58.8848
lclavicle -2.98177e-015 -5.56597e-015
lhumerus -24.8968 11.6349 85.4393
lradius 7.6425
lwrist -6.02556
lhand -26.3323 -6.56466
lfingers 7.12502
lthumb 0.224811 23.415
rfemur -21.4069 -1.26055 18.2809
rtibia 28.7859
rfoot -12.8497 -1.26871
rtoes 9.60324
lfemur -19.6001 6.21387 -19.0606
ltibia 22.5556
lfoot -8.57349 2.69806
ltoes -1.17321
434
root 0.53058 17.6374 1.21852 7.7082 1.03158 0.0456685
lowerback 1.15895 -0.505848 -1.19172
upperback 2.35407 -0.700503 1.89083
thorax 1.80252 -0.389996 2.60617
lowerneck -11.9409 -0.659668 -1.51072
upperneck 29.1574 -0.764105 0.596555
head 11.4529 -0.435561 0.380463
rclavicle -7.55382e-015 1.15295e-014
rhumerus -23.3509 -29.3506 -74.8747
rradius 18.4868
rwrist 52.3706
rhand -23.7923 -28.9307
rfingers 7.12502
rthumb 2.67797 -58.8936
lclavicle -7.55382e-015 1.15295e-014
lhumerus -24.7976 11.653 85.3791
lradius 7.61426
lwrist -6.15075
lhand -26.3523 -6.5985
lfingers 7.12502
lthumb 0.205463 23.3811
rfemur -21.2719 -1.24482 18.3479
rtibia 28.621
rfoot -12.8612 -1.24045
rtoes 9.68053
lfemur -19.519 6.18192 -18.9813
ltibia 22.4684
lfoot -8.56729 2.70993
ltoes -1.24714
435
root 0.532511 17.641 1.24667 7.7766 1.04283 -0.0302588
lowerback 1.15517 -0.50055 -1.12395
upperback 2.37677 -0.694125 1.9241
thorax 1.8272 -0.386388 2.60224
lowerneck -11.9525 -0.661018 -1.49601
upperneck 29.0641 -0.757159 0.557346
head 11.4188 -0.435315 0.364254
rclavicle -5.96354e-016 3.97569e-015
rhumerus -23.7636 -30.2965 -74.2556
rradius 18.0868
rwrist 53.5064
rhand -23.7802 -28.9281
rfingers 7.12502
rthumb 2.68966 -58.8908
lclavicle -5.96354e-016 3.97569e-015
lhumerus -24.718 11.6616 85.3229
lradius 7.6126
lwrist -6.34615
lhand -26.4012 -6.61534
lfingers 7.12502
lthumb 0.158215 23.3643
rfemur -21.1434 -1.24715 18.4288
rtibia 28.436
rfoot -12.8663 -1.19892
rtoes 9.71879
lfemur -19.4649 6.16978 -18.8947
ltibia 22.4066
lfoot -8.58467 2.72106
ltoes -1.3393
436
root 0.534643 17.645 1.27531 7.8624 1.04929 -0.117792
lowerback 1.13076 -0.491068 -1.0447
upperback 2.38341 -0.68205 1.9594
thorax 1.84653 -0.379534 2.59384
lowerneck -11.9607 -0.666198 -1.50012
upperneck 28.9793 -0.758222 0.541779
head 11.3877 -0.437841 0.358982
rclavicle 2.38542e-015 3.18055e-015
rhumerus -24.2119 -31.3093 -73.594
rradius 17.6877
rwrist 54.7038
rhand -23.7657 -28.9195
rfingers 7.12502
rthumb 2.70367 -58.8821
lclavicle 2.38542e-015 3.18055e-015
lhumerus -24.6555 11.6633 85.27
lradius 7.63394
lwrist -6.57129
lhand -26.4626 -6.609
lfingers 7.12502
lthumb 0.0989474 23.3707
rfemur -21.0221 -1.27143 18.5258
rtibia 28.2294
rfoot -12.8639 -1.1453
rtoes 9.71717
lfemur -19.4336 6.17402 -18.8004
ltibia 22.3591
lfoot -8.61435 2.73577
ltoes -1.45543
437
root 0.536855 17.6493 1.30444 7.96371 1.05318 -0.218524
lowerback 1.08292 -0.478855 -0.954213
upperback 2.38041 -0.666349 1.99743
thorax 1.86881 -0.370621 2.5818
lowerneck -11.981 -0.675194 -1.52174
upperneck 28.9052 -0.767239 0.549617
head 11.3634 -0.442989 0.364278
rclavicle -6.75868e-015 2.26615e-014
rhumerus -24.685 -32.347 -72.9102
rradius 17.3085
rwrist 55.9088
rhand -23.7523 -28.9007
rfingers 7.12502
rthumb 2.71654 -58.8631
lclavicle -6.75868e-015 2.26615e-014
lhumerus -24.5997 11.6618 85.2218
lradius 7.67734
lwrist -6.7674
lhand -26.5482 -6.60449
lfingers 7.12502
lthumb 0.0162496 23.3753
rfemur -20.906 -1.31873 18.6397
rtibia 28.0033
rfoot -12.8555 -1.07391
rtoes 9.7168
lfemur -19.417 6.18327 -18.6954
ltibia 22.312
lfoot -8.64431 2.76356
ltoes -1.58898
438
root 0.539046 17.6543 1.33397 8.07557 1.05725 -0.320274
lowerback 1.02301 -0.464635 -0.866753
upperback 2.36464 -0.647933 2.03488
thorax 1.88467 -0.360225 2.57083
lowerneck -11.9983 -0.688582 -1.55357
upperneck 28.8358 -0.785809 0.576774
head 11.3406 -0.451202 0.37718
rclavicle 2.5842e-015 1.98785e-015
rhumerus -25.1903 -33.3272 -72.2273
rradius 16.9728
rwrist 57.0244
rhand -23.7164 -28.8879
rfingers 7.12502
rthumb 2.75129 -58.8499
lclavicle 2.5842e-015 1.98785e-015
lhumerus -24.5587 11.6542 85.1756
lradius 7.74217
lwrist -6.89108
lhand -26.6573 -6.63274
lfingers 7.12502
lthumb -0.0890822 23.347
rfemur -20.7929 -1.3908 18.7568
rtibia 27.7609
rfoot -12.8401 -0.983711
rtoes 9.7545
lfemur -19.4037 6.18867 -18.5916
ltibia 22.2527
lfoot -8.6672 2.80574
ltoes -1.72179
